<svg xmlns="http://www.w3.org/2000/svg" xmlns:xlink="http://www.w3.org/1999/xlink" width="387" height="420"><defs><path id="a" d="M0 .621h79.759v80.536H0z"/><linearGradient id="c" x1="50%" x2="50%" y1="3.272%" y2="97.427%"><stop offset="0%" stop-color="#009EA0"/><stop offset="100%" stop-color="#009E90"/></linearGradient><linearGradient id="d" x1="50%" x2="50%" y1="3.272%" y2="96.14%"><stop offset="0%" stop-color="#009EA1"/><stop offset="100%" stop-color="#009E8F"/></linearGradient><linearGradient id="e" x1="50%" x2="50%" y1="3.272%" y2="96.63%"><stop offset="0%" stop-color="#009FD3"/><stop offset="100%" stop-color="#009EB2"/></linearGradient><linearGradient id="f" x1="50%" x2="50%" y1="3.272%" y2="97.427%"><stop offset="0%" stop-color="#009FC5"/><stop offset="100%" stop-color="#009FB9"/></linearGradient><linearGradient id="g" x1="50%" x2="50%" y1="3.272%" y2="97.427%"><stop offset="0%" stop-color="#009EB2"/><stop offset="100%" stop-color="#009EAB"/></linearGradient><linearGradient id="h" x1="50%" x2="50%" y1="3.272%" y2="94.838%"><stop offset="0%" stop-color="#009FCC"/><stop offset="100%" stop-color="#009EAB"/></linearGradient><linearGradient id="i" x1="50%" x2="50%" y1="3.272%" y2="97.427%"><stop offset="0%" stop-color="#009FD3"/><stop offset="100%" stop-color="#009EB2"/></linearGradient><linearGradient id="j" x1="50%" x2="50%" y1="3.272%" y2="97.427%"><stop offset="0%" stop-color="#009E9B"/><stop offset="100%" stop-color="#009E8F"/></linearGradient><linearGradient id="k" x1="50%" x2="50%" y1="3.272%" y2="97.427%"><stop offset="0%" stop-color="#009E9E"/><stop offset="100%" stop-color="#009E8F"/></linearGradient></defs><g fill="none" fill-rule="evenodd"><path fill="#EDEDED" d="M281.257 68.45c.13 0 .209.08.253.148l.096.153-.095.152a.294.294 0 0 1-.254.149.301.301 0 1 1 0-.603m53.814 54.838l.153-.097.15.096a.3.3 0 0 1 .151.254.302.302 0 0 1-.604 0c0-.132.082-.21.15-.253m-53.814-41.663c3.13 0 6.076-1.112 8.375-3.083h17.16c10.268 0 18.623 8.34 18.623 18.59v18.048a12.783 12.783 0 0 0-3.09 8.361c0 7.1 5.787 12.873 12.898 12.873 7.112 0 12.898-5.773 12.898-12.873 0-3.124-1.116-6.065-3.09-8.362V97.131c0-21.048-17.155-38.17-38.24-38.17h-17.159a12.831 12.831 0 0 0-8.375-3.084c-7.112 0-12.897 5.776-12.897 12.874 0 7.099 5.785 12.873 12.897 12.873m54.118 217.314l-.15.096-.154-.097a.294.294 0 0 1-.15-.253.3.3 0 1 1 .602 0c0 .132-.08.212-.148.254zm-54.79 53.765a.298.298 0 0 1-.253.15.302.302 0 0 1 0-.603c.132 0 .211.08.254.148l.095.152-.096.153zm54.638-66.892c-7.111 0-12.897 5.775-12.897 12.873 0 3.124 1.115 6.065 3.089 8.36v17.126c0 10.251-8.356 18.59-18.624 18.59h-18.083a12.837 12.837 0 0 0-8.376-3.083c-7.112 0-12.898 5.775-12.898 12.873 0 7.099 5.786 12.874 12.898 12.874 3.13 0 6.075-1.115 8.376-3.084h18.083c21.085 0 38.24-17.122 38.24-38.17v-17.124a12.789 12.789 0 0 0 3.09-8.362c0-7.098-5.786-12.873-12.898-12.873zM50.746 122.364l.15-.095.153.095c.068.043.15.122.15.254a.301.301 0 0 1-.603 0c0-.131.08-.211.15-.254zm54.789-53.765a.295.295 0 0 1 .253-.15c.165 0 .302.135.302.302 0 .165-.137.3-.302.3a.294.294 0 0 1-.254-.148l-.096-.152.097-.152zM50.896 135.49c7.113 0 12.898-5.774 12.898-12.872 0-3.125-1.114-6.066-3.088-8.362V97.131c0-10.25 8.354-18.59 18.622-18.59h18.084a12.832 12.832 0 0 0 8.376 3.083c7.111 0 12.897-5.775 12.897-12.873 0-7.098-5.786-12.874-12.897-12.874-3.13 0-6.076 1.114-8.376 3.084H79.328c-21.085 0-38.24 17.122-38.24 38.17v17.125A12.783 12.783 0 0 0 38 122.618c0 7.098 5.785 12.872 12.896 12.872zm211.98 124.655l-.057-.174.128-.12a.314.314 0 0 1 .28-.08v.002c.037.009.123.027.188.134.068.105.049.19.04.225a.302.302 0 0 1-.36.228.3.3 0 0 1-.22-.215zm-14.1-58.815c.037-4.368.292-7.258.566-10.337.384-4.356.823-9.293.692-18.74-.431-31.377-26.02-56.905-57.046-56.905-28.332 0-50.487 19.195-56.444 48.905-1.996 9.954-5.778 13.153-9.916 14.218a13.023 13.023 0 0 0-4.313-2.203c5.066-.096 9.824-3.186 11.784-8.182a12.768 12.768 0 0 0-.34-10.17c.678-2.657 1.422-5.403 2.22-7.448 9.126-23.297 32.037-38.95 57.009-38.95 33.666 0 61.112 27.304 61.207 60.874l-.001.09c-.038 1.023-.561 15.26-1.428 23.333-.905 8.364 1.318 14.324 3.827 18.233.299 4.49 2.938 8.555 7.118 10.636.118.06.24.117.361.172-.275.09-.545.185-.816.294-7.895-3.306-14.61-8.998-14.48-23.82zm-26.4 36.69a.245.245 0 0 1-.007.125l-.046.186-.224.051a.303.303 0 0 1-.185-.052.285.285 0 0 1-.13-.19.303.303 0 0 1 .238-.357c.015-.002.037-.007.064-.007.043 0 .1.01.162.052.104.07.12.153.128.192zm35.364 10.364c-4.475-1.47-8.692-3.201-12.327-4.751-3.395-1.45-7.11-3.816-10.481-6.649a13.138 13.138 0 0 0-.208-1.452 12.794 12.794 0 0 0-5.508-8.177 12.819 12.819 0 0 0-9.688-1.893c-6.97 1.404-11.497 8.208-10.089 15.165a12.78 12.78 0 0 0 5.508 8.175 12.833 12.833 0 0 0 6.137 2.119c5.182 4.556 11 8.315 16.618 10.716 4.274 1.822 9.287 3.872 14.778 5.63a13.103 13.103 0 0 0 1.948 2.258h-.002a12.89 12.89 0 0 0-5.367 1.172c-8.113-2.707-14.658-6.18-20.019-9.027-7.926-4.205-15.412-8.178-24.147-8.178-6.843 0-14.489 2.433-26.084 6.123-9.936 3.162-23.363 7.438-41.02 11.482a12.812 12.812 0 0 0-6.872-1.494 12.78 12.78 0 0 0 2.06-2.096c14.18-2.887 34.237-7.427 52.233-19.101 25.297-16.415 39.353-42.373 40.649-75.066.716-18.052-13.41-33.32-31.488-34.034-8.749-.356-17.132 2.713-23.557 8.625-6.46 5.944-10.207 14.047-10.553 22.817-.7 17.688-6.298 25.028-37.411 31.897a12.803 12.803 0 0 0-3.011-1.19 12.892 12.892 0 0 0 7.479-3.226c11.072-1.435 24.042-8.093 28.462-30.135 4.038-20.148 18.644-33.166 37.208-33.166 20.356 0 37.146 16.864 37.43 37.594.118 8.44-.274 12.87-.623 16.809-.277 3.127-.592 6.672-.636 11.833-.179 20.745 9.157 35.039 27.756 42.528a12.812 12.812 0 0 0 3.45 3.806c-.903.199-1.784.495-2.625.886zm-3.148 34.272c-.108.065-.193.046-.226.04a.306.306 0 0 1-.217-.216l-.056-.175.133-.122a.294.294 0 0 1 .277-.077v.001a.3.3 0 0 1 .223.363.267.267 0 0 1-.134.186zm-17.406 7.628c-2.92-1.238-5.85-2.607-8.324-3.764-9.214-4.31-17.919-8.38-25.945-8.38-5.547 0-13.477 2.132-30.25 6.998-7.047 2.04-14.926 4.323-21.947 6.04a12.859 12.859 0 0 0-6.064-1.518c-.079 0-.159 0-.236.002 17.304-4.056 30.487-8.254 40.347-11.393 9.482-3.016 16.329-5.196 20.126-5.196 3.84 0 8.98 2.726 14.943 5.887 6.237 3.313 13.88 7.37 23.897 10.605.026.042.055.082.083.122a12.932 12.932 0 0 0-6.63.597zm4.57 12.354a.29.29 0 0 1-.23.021.303.303 0 0 1-.205-.23l-.041-.175.143-.112a.299.299 0 0 1 .479.316.279.279 0 0 1-.146.18zm-12.33 5.63c.312.134.63.267.945.398.077.138.156.272.236.405-.377-.289-.771-.555-1.182-.803zm-10.517-1.266c-5.834-2.435-11.876-4.415-19.353-4.415-4.09 0-9.057 1.085-19.417 3.559-2.93.698-6.424 1.53-9.87 2.27a12.886 12.886 0 0 0-3.202-1.306c3.775-1.055 7.525-2.141 11.073-3.169 9.553-2.771 21.445-6.221 24.777-6.221 3.658 0 11.084 3.472 17.64 6.538 1.76.824 3.732 1.745 5.805 2.673a12.877 12.877 0 0 0-7.453.071zm4.128 12.4c-.015.034-.046.115-.16.164-.116.05-.197.018-.234.004a.298.298 0 0 1-.18-.24l-.03-.182.145-.1a.293.293 0 0 1 .287-.039l.003.001c.033.014.115.046.165.16.05.115.016.196.004.233zm-58.93.278a.302.302 0 0 1-.231.191.275.275 0 0 1-.225-.057c-.102-.074-.114-.16-.119-.195a.303.303 0 0 1 .303-.347c.106 0 .179.054.222.103l.12.132-.07.173zm-19.183-17.05c-.024.064-.085.175-.22.2a.297.297 0 0 1-.356-.24c-.007-.036-.024-.123.048-.225a.282.282 0 0 1 .193-.127.3.3 0 0 1 .275.093l.125.127-.065.173zm-12.931-20.082a.295.295 0 0 1-.219.2.308.308 0 0 1-.357-.233.275.275 0 0 1 .043-.226c.068-.105.155-.122.193-.131a.248.248 0 0 1 .06-.007c.097 0 .168.052.215.098l.126.128-.061.171zm60.817-110.67c.069-.104.154-.122.192-.13a.303.303 0 0 1 .355.235c.043.217-.153.322-.155.323l-.163.086-.153-.111c-.1-.075-.117-.144-.121-.177a.27.27 0 0 1 .045-.227zm-66.636 75.264a12.856 12.856 0 0 0 2.098-2.124c13.04-2.655 29.926-6.49 44.392-15.876 16.702-10.835 26.588-26.945 29.418-47.91 3.045-2.998 4.492-7.418 3.62-11.737a12.787 12.787 0 0 0-5.508-8.175 12.828 12.828 0 0 0-9.685-1.895 12.813 12.813 0 0 0-8.192 5.498 12.773 12.773 0 0 0-1.9 9.669 12.83 12.83 0 0 0 2.129 4.902c-4.628 31.933-28.911 40.258-58.187 46.332-.447-.25-.91-.472-1.381-.663a12.75 12.75 0 0 0 3.87-3.342c28.412-6.15 51.608-14.862 53.014-50.299a13.124 13.124 0 0 1 4.248-9.196 13.076 13.076 0 0 1 9.472-3.456c7.276.287 12.964 6.431 12.677 13.696-1.035 26.072-12.01 46.62-31.741 59.424-14.94 9.693-32.736 13.737-45.446 16.329-.918-.51-1.89-.905-2.898-1.177zm-3.08 12.533a.296.296 0 0 1-.445.154c-.104-.07-.12-.156-.13-.193-.005-.037-.023-.122.046-.225.07-.105.156-.121.193-.13.02-.002.04-.005.056-.005.101 0 .173.053.22.102l.125.13-.064.167zm-4.113-70.889a.344.344 0 0 1-.282.144.304.304 0 0 1-.277-.325.304.304 0 0 1 .302-.277h.025c.095.009.17.06.228.15l.1.162-.096.146zm-.59 48.4a.295.295 0 0 1-.218.198h-.002a.285.285 0 0 1-.228-.043.278.278 0 0 1-.129-.19c-.007-.035-.025-.121.043-.227.07-.104.154-.122.194-.13a.305.305 0 0 1 .277.097l.123.13-.06.166zm-1.46-23.152a.294.294 0 0 1-.219.198.273.273 0 0 1-.225-.046c-.106-.068-.122-.154-.13-.19a.304.304 0 0 1 .295-.362c.099 0 .172.053.22.103l.124.129-.065.168zm5.075-50.92l.178-.052.12.133c.03.035.125.157.064.31a.303.303 0 0 1-.39.173.303.303 0 0 1-.17-.392c.011-.032.049-.128.198-.173zm145.803 73.788a.304.304 0 0 1 .294-.065h.001a.301.301 0 1 1-.196.57.296.296 0 0 1-.192-.218l-.044-.172.137-.115zm1.358-23.784l.032-.188.199-.053c.11-.029.176.002.203.017a.28.28 0 0 1 .152.174c.04.118 0 .196-.017.23s-.055.112-.173.152c-.124.041-.197 0-.23-.017-.197-.098-.166-.313-.166-.315zm-5.989 59.823c5.872-.01 11.19-4.054 12.554-10.007.768-3.352.182-6.801-1.65-9.713a12.878 12.878 0 0 0-3.28-3.535c4.258-.951 7.935-4.034 9.428-8.457 1.099-3.259.86-6.75-.672-9.83a12.781 12.781 0 0 0-6.163-5.974l.164-.053a12.803 12.803 0 0 0 7.45-6.463 12.77 12.77 0 0 0 .689-9.83 12.8 12.8 0 0 0-6.478-7.437 12.863 12.863 0 0 0-2.982-1.05 12.987 12.987 0 0 1 .032-2.684c1.01-9.42 1.526-24.722 1.532-24.875l.008-.552c-.084-44.411-36.34-80.543-80.822-80.543-32.984 0-63.236 20.657-75.285 51.413-1.154 2.965-2.068 6.275-2.869 9.398a12.77 12.77 0 0 0-4.756 5.957c-2.594 6.61.687 14.091 7.31 16.68h.001c.362.141.725.265 1.092.371-6.525.12-12.05 5.164-12.609 11.792-.536 6.358 3.676 12.042 9.68 13.56-.484.041-.968.11-1.452.209-6.969 1.405-11.496 8.208-10.091 15.166a12.792 12.792 0 0 0 5.51 8.176c.722.48 1.48.881 2.27 1.203a12.83 12.83 0 0 0-4.47 4.175 12.771 12.771 0 0 0-1.834 9.682 12.789 12.789 0 0 0 5.561 8.14 12.96 12.96 0 0 0 3.704 1.665 12.97 12.97 0 0 0-2.673 2.924 12.761 12.761 0 0 0-1.904 9.666 12.785 12.785 0 0 0 5.503 8.182 12.8 12.8 0 0 0 7.936 2.131 12.932 12.932 0 0 0-2.693 2.978 12.775 12.775 0 0 0-1.83 9.683c1.439 6.869 8.155 11.317 15.027 10.011-.04.056-.08.112-.118.169a12.771 12.771 0 0 0-2.028 9.642c1.312 6.977 8.075 11.591 15.057 10.276a12.908 12.908 0 0 0 6.483-3.32 12.805 12.805 0 0 0-2.44 9.57 12.79 12.79 0 0 0 5.059 8.462 12.822 12.822 0 0 0 7.674 2.548c.63 0 1.264-.043 1.897-.136a12.945 12.945 0 0 0 8.139-4.634c3.917-.83 7.844-1.769 10.863-2.49 5.637-1.345 12.652-3.02 14.854-3.02 4.04 0 7.556 1.135 11.66 2.847a12.92 12.92 0 0 0 6.803 6.249 12.823 12.823 0 0 0 9.87-.164 12.796 12.796 0 0 0 6.863-7.08 12.776 12.776 0 0 0-.165-9.853 13.15 13.15 0 0 0-.823-1.586 12.827 12.827 0 0 0 4.117 2.113c3.298.995 6.785.649 9.822-.974a12.803 12.803 0 0 0 6.257-7.624c1.175-3.882.416-7.896-1.72-11.009a12.789 12.789 0 0 0 8.965-1.73 12.784 12.784 0 0 0 5.78-7.99c1.108-4.677-.503-9.373-3.807-12.425z"/><g transform="translate(38 284.268)"><mask id="b" fill="#fff"><use xlink:href="#a"/></mask><path fill="#EDEDED" d="M66.864 68.585a.297.297 0 0 1-.254-.15l-.097-.153.096-.15a.295.295 0 0 1 .255-.15.301.301 0 0 1 0 .603M13.05 13.747l-.153.095-.15-.095a.296.296 0 0 1-.15-.254.302.302 0 1 1 .602 0c0 .132-.081.21-.15.254M66.865 55.41a12.83 12.83 0 0 0-8.377 3.083H41.33c-10.27 0-18.623-8.34-18.623-18.59V21.855a12.782 12.782 0 0 0 3.088-8.362c0-7.099-5.787-12.872-12.898-12.872C5.786.621 0 6.394 0 13.493c0 3.125 1.115 6.066 3.089 8.362v18.048c0 21.048 17.155 38.17 38.24 38.17h17.158a12.836 12.836 0 0 0 8.377 3.084c7.111 0 12.895-5.777 12.895-12.875S73.975 55.41 66.864 55.41" mask="url(#b)"/></g><path fill="#019FE2" d="M277 67.639c0 2.56 2.044 4.638 4.563 4.638 1.986 0 3.658-1.297 4.286-3.095h21.462c14.972 0 27.152 12.38 27.152 27.6v22.277a5.08 5.08 0 0 0-3.502 4.839c0 2.817 2.248 5.102 5.02 5.102 2.772 0 5.019-2.285 5.019-5.102a5.078 5.078 0 0 0-3.504-4.84V96.782c0-16.918-13.54-30.682-30.185-30.682h-21.462c-.628-1.802-2.3-3.099-4.286-3.099-2.519 0-4.563 2.078-4.563 4.639"/><path fill="url(#c)" d="M295.723 245.563c0 1.985 1.297 3.657 3.096 4.285v21.462c0 14.974-12.38 27.153-27.598 27.153h-22.278a5.078 5.078 0 0 0-4.839-3.503c-2.819 0-5.104 2.248-5.104 5.02 0 2.77 2.285 5.02 5.104 5.02a5.078 5.078 0 0 0 4.84-3.503h22.277c16.918 0 30.682-13.542 30.682-30.187v-21.462c1.8-.627 3.097-2.3 3.097-4.285 0-2.518-2.077-4.563-4.639-4.563-2.56 0-4.638 2.045-4.638 4.563" transform="translate(38 55)"/><path fill="url(#d)" d="M9.502 248.941v22.279c0 16.918 13.543 30.683 30.187 30.683H61.15c.63 1.8 2.3 3.097 4.286 3.097 2.519 0 4.564-2.079 4.564-4.639s-2.045-4.639-4.564-4.639c-1.986 0-3.657 1.298-4.286 3.097H39.69c-14.972 0-27.152-12.38-27.152-27.6v-22.278a5.079 5.079 0 0 0 3.502-4.839c0-2.818-2.246-5.102-5.02-5.102C8.248 239 6 241.284 6 244.102a5.077 5.077 0 0 0 3.502 4.84z" transform="translate(38 55)"/><path fill="#019FE2" d="M77.78 64.504c-16.918 0-30.684 13.541-30.684 30.186v21.462c-1.799.627-3.096 2.298-3.096 4.284 0 2.519 2.078 4.564 4.639 4.564 2.56 0 4.638-2.045 4.638-4.564 0-1.986-1.297-3.657-3.096-4.284V94.69c0-14.974 12.38-27.153 27.599-27.153h22.28a5.074 5.074 0 0 0 4.84 3.503c2.816 0 5.1-2.248 5.1-5.021 0-2.77-2.284-5.019-5.1-5.019a5.073 5.073 0 0 0-4.84 3.504H77.78z"/><path fill="url(#e)" d="M82.813 101.36c-.164.643-.321 1.265-.473 1.855-1.739.093-3.348 1.165-4.024 2.88-.922 2.344.242 4.988 2.601 5.907 2.358.917 5.02-.239 5.94-2.584.78-1.976.064-4.155-1.59-5.342.163-.638.335-1.307.51-2.006.869-3.447 1.857-7.352 3.052-10.41 10.5-26.694 36.87-44.628 65.615-44.628 38.77 0 70.371 31.364 70.446 69.883-.009.39-.545 15.632-1.495 24.457-.802 7.382 1.55 12.021 3.903 14.742a4.987 4.987 0 0 0 2.405 6.358c2.494 1.236 5.523.228 6.766-2.251 1.243-2.477.23-5.488-2.264-6.724a5.048 5.048 0 0 0-4.927.256c-1.798-2.266-3.502-6.056-2.854-12.057.965-8.933 1.505-24.284 1.51-24.464C227.862 76.722 194.894 44 154.445 44c-29.99 0-57.5 18.71-68.456 46.558-1.268 3.238-2.278 7.243-3.175 10.802z" transform="translate(38 55)"/><path fill="url(#f)" d="M153.453 111.1c-2.489.521-4.088 2.976-3.565 5.48a4.613 4.613 0 0 0 2.698 3.307c-3.83 47.043-43.546 55.159-70.116 60.545-1.053-1.893-3.217-2.982-5.438-2.515-2.739.575-4.496 3.274-3.924 6.029.572 2.754 3.256 4.521 5.994 3.945 2.203-.462 3.749-2.307 3.98-4.444 27.509-5.574 68.634-13.98 72.564-63.378a4.623 4.623 0 0 0 3.257-5.383 4.615 4.615 0 0 0-4.505-3.686c-.311 0-.628.032-.945.1" transform="translate(38 55)"/><path fill="url(#g)" d="M180.098 183.61c.521 2.52 2.968 4.136 5.462 3.61a4.48 4.48 0 0 0 .821-.261c5.24 5.387 11.733 10.012 17.897 12.673 5.427 2.341 11.267 4.7 17.592 6.517.122 2.227 1.657 4.2 3.92 4.721 2.732.631 5.454-1.096 6.081-3.854.625-2.76-1.085-5.507-3.818-6.138-2.158-.498-4.293.484-5.411 2.273-6.143-1.773-11.848-4.078-17.159-6.367-5.781-2.497-11.878-6.844-16.825-11.913.503-.936.709-2.04.48-3.164A4.632 4.632 0 0 0 184.62 178c-.311 0-.63.032-.945.098-2.497.527-4.099 2.996-3.578 5.513z" transform="translate(38 55)"/><path fill="url(#h)" d="M138.049 98.57c-4.92 4.517-7.777 10.676-8.043 17.345-.557 14.093-4.945 23.188-14.224 29.498-8.514 5.79-20.97 8.906-34.294 11.649-1.047-1.865-3.198-2.946-5.416-2.5-2.747.552-4.525 3.219-3.97 5.953.554 2.738 3.231 4.509 5.98 3.956a5.043 5.043 0 0 0 4.017-4.415c30.105-6.23 49.758-13.41 50.974-44.019.233-5.853 2.74-11.259 7.057-15.221 4.297-3.947 9.89-5.985 15.732-5.74 12.088.477 21.53 10.654 21.052 22.689-1.165 29.373-13.69 52.604-36.214 67.185-17.637 11.414-37.986 15.542-52.925 18.54-1.049-1.865-3.199-2.945-5.417-2.5-2.746.55-4.526 3.216-3.972 5.951.553 2.738 3.23 4.509 5.977 3.959 2.227-.446 3.791-2.283 4.024-4.415 15.175-3.047 35.857-7.241 53.984-18.975 23.396-15.143 36.4-39.217 37.61-69.624.545-13.718-10.22-25.32-23.994-25.863a24.787 24.787 0 0 0-17.938 6.547" transform="translate(38 55)"/><path fill="url(#i)" d="M105.914 109.794c-2.888 14.39-9.888 21.282-21.958 21.646a4.584 4.584 0 0 0-3.983-3.16 4.586 4.586 0 0 0-4.957 4.176 4.58 4.58 0 0 0 4.188 4.943 4.57 4.57 0 0 0 4.644-2.913c13.479-.347 21.914-8.433 25.057-24.096 4.919-24.51 22.968-40.347 45.983-40.347 25.217 0 46.02 20.8 46.371 46.363.123 9-.292 13.699-.664 17.86-.28 3.173-.57 6.456-.612 11.345-.216 24.977 15.025 32.684 25.943 36.363.004 2.097 1.312 4.056 3.415 4.762 2.64.886 5.505-.53 6.394-3.166a5.03 5.03 0 0 0-3.174-6.375c-2.163-.726-4.46.11-5.713 1.88-10.504-3.546-24.011-10.548-23.814-33.44.04-4.767.326-7.988.603-11.12.374-4.216.8-8.993.673-18.148C203.936 89.146 181.765 67 154.888 67c-24.536 0-43.759 16.798-48.974 42.794" transform="translate(38 55)"/><path fill="#009EA4" d="M181.141 269.033c-11.022 3.657-25.837 8.571-45.77 13.144-1.054-1.912-3.185-3.008-5.37-2.533-2.718.593-4.462 3.366-3.894 6.194.569 2.828 3.233 4.64 5.95 4.05 2.206-.48 3.745-2.402 3.953-4.62 20.074-4.602 34.971-9.543 46.055-13.223 10.678-3.542 17.733-5.883 22.873-5.883 5.973 0 12.023 3.346 19.03 7.222 6.782 3.754 15.024 8.313 26.006 11.597.11 2.261 1.615 4.274 3.839 4.822 2.701.665 5.41-1.074 6.05-3.887.64-2.81-1.032-5.63-3.734-6.296-2.14-.528-4.268.47-5.386 2.3-10.653-3.197-18.716-7.656-25.354-11.33-7.362-4.073-13.72-7.59-20.45-7.59-5.614 0-12.85 2.4-23.798 6.033"/><path fill="url(#j)" d="M129.457 264.575c-.959-1.871-2.992-3.025-5.164-2.702-2.743.407-4.642 2.992-4.24 5.774.401 2.782 2.95 4.706 5.692 4.299 2.26-.336 3.923-2.154 4.224-4.338 4.74-.924 9.837-2.159 14.148-3.205 8.284-2.01 13.937-3.325 16.925-3.325 7.031 0 12.76 2.552 18.305 5.024.175.08.369.164.556.248-.115 1.94.976 3.821 2.857 4.574 2.343.939 4.994-.227 5.92-2.604.926-2.377-.226-5.064-2.57-6.004-1.81-.724-3.797-.184-5.036 1.195l-.51-.228c-5.828-2.598-11.853-5.283-19.522-5.283-3.33 0-8.884 1.288-17.63 3.411-4.262 1.034-9.299 2.254-13.955 3.164z" transform="translate(38 55)"/><path fill="url(#k)" d="M137.672 239.96c-8.592 2.573-18.138 5.428-26.284 7.314-1.028-1.88-3.117-2.98-5.288-2.559-2.729.528-4.525 3.24-4.013 6.055.513 2.814 3.143 4.668 5.87 4.14 2.238-.433 3.826-2.34 4.05-4.566 8.25-1.907 17.86-4.782 26.513-7.372 13.777-4.13 23.124-6.837 27.366-6.837 5.565 0 13.24 3.71 21.373 7.64 3.997 1.931 8.385 4.049 12.707 5.745-.054 2.27 1.338 4.396 3.55 5.087 2.657.829 5.464-.723 6.268-3.466.803-2.74-.7-5.635-3.36-6.464-2.08-.65-4.242.175-5.47 1.875-4.19-1.65-8.492-3.726-12.413-5.619-8.44-4.08-16.414-7.933-22.655-7.933-4.657 0-13.765 2.63-28.214 6.96" transform="translate(38 55)"/></g></svg>
